# xmcd
#
# Track frame offsets: 
#        150
#        12307
#        23883
#        44325
#        59014
#        72602
#        87380
#        109720
#        122265
#        134773
#        157552
#        170037
#        182649
#        196319
#        209100
#
# Disc length: 3039 seconds
#
# Revision: 0
# Processed by: cddbd v1.5PL3 Copyright (c) Steve Scherf et al.
# Submitted via: ExactAudioCopy v0.95a5
#
DISCID=da0bdd0f
DTITLE=Various Artist - Heaven Bound - The Best of Bluegrass Gospel 2 - Disc 
DTITLE=1
DYEAR=2003
DGENRE=Gospel
TTITLE0=Lester Flatt and Earl Scruggs - God Loves His Children
TTITLE1=Ricky Skaggs - A Voice from On High
TTITLE2=The Bluegrass Cardinals - Carpenter of Wood
TTITLE3=The Marshall Family - Glory Land
TTITLE4=The Nashville Bluegrass Band - The First Step to Heaven
TTITLE5=Wilma Lee and Stoney Cooper - Legend of the Dogwood
TTITLE6=J. D. Crowe - The Model Church
TTITLE7=Carl Story - My Lord Keeps a Record
TTITLE8=Wade and Julie Mainer - I Can't Sit Down
TTITLE9=South Central Bluegrass - I Pressed through the Crowd
TTITLE10=Forbes Family - The Prettiest Flowers Will Be Blooming
TTITLE11=The Country Gentlemen - Calling My Children Home
TTITLE12=Reno and Smiley - A Pretty Wreath for Mother's Grave
TTITLE13=Bill Emerson and Cliff Waldron - Who'll Sing for Me
TTITLE14=Aubrey Haynie - Can I Get an Amen
EXTD=UPC=6-10583-07652-3
EXTT0=
EXTT1=
EXTT2=
EXTT3=
EXTT4=
EXTT5=
EXTT6=
EXTT7=
EXTT8=
EXTT9=
EXTT10=
EXTT11=
EXTT12=
EXTT13=
EXTT14=
PLAYORDER=
